<svg xmlns="http://www.w3.org/2000/svg" width="400" height="400" viewBox="0 0 105.833 105.833"><defs><path id="d" d="M-32.928 70.345h148.923v83.816H-32.928z"/><path id="c" d="M223.384 239.474h111.505v90.551H223.384z"/><path id="b" d="M86.809 77.829h85.687v74.461H86.809z"/><path id="a" d="M6.048 117.929H198.06v60.476H6.048z"/></defs><path style="fill:#b845fc;fill-opacity:1;stroke-width:2.05673;stroke-linecap:square;paint-order:stroke fill markers" d="M-.106 0h106.584v105.67H-.106z"/><g style="fill:#eff0f9;fill-opacity:1;stroke:none;stroke-width:.919854;stroke-miterlimit:4;stroke-dasharray:none;stroke-opacity:1"><path d="m529.99 110.117-89.998-91.546c-.052-.053-.112-.094-.165-.145a7.102 7.102 0 0 0-.39-.343 7.745 7.745 0 0 0-.47-.364 6.827 6.827 0 0 0-.414-.269 7.38 7.38 0 0 0-.55-.305c-.076-.038-.143-.087-.22-.122-.07-.032-.144-.049-.214-.078a7.454 7.454 0 0 0-.59-.217 7.704 7.704 0 0 0-.464-.139 7.897 7.897 0 0 0-.59-.119c-.162-.027-.324-.057-.487-.074-.197-.02-.395-.023-.594-.028-.164-.003-.327-.012-.49-.004-.197.01-.394.036-.59.061-.166.021-.33.035-.493.066-.185.036-.368.092-.552.142-.17.047-.343.087-.51.147-.028.01-.055.013-.082.023-.153.056-.292.133-.439.2-.163.071-.328.135-.486.218-.196.104-.377.228-.562.348-.12.08-.248.147-.366.234a7.494 7.494 0 0 0-.834.714l-.008.007-104.35 104.354-22.74-22.74a7.434 7.434 0 0 0-10.513 10.513l107.254 107.253L269.277 347.71l-44.55-304.163 34.393 34.395a7.434 7.434 0 0 0 10.513-10.513l-50.257-50.257c-.024-.024-.053-.042-.077-.066a7.427 7.427 0 0 0-.789-.672c-.038-.028-.077-.052-.115-.079a7.565 7.565 0 0 0-.908-.554l-.027-.012a7.4 7.4 0 0 0-.977-.403c-.033-.01-.065-.024-.098-.035a7.343 7.343 0 0 0-.986-.238l-.178-.03a7.409 7.409 0 0 0-.86-.084L45.363 9.51a8.429 8.429 0 0 0-8.06 5.105 8.438 8.438 0 0 0 1.785 9.372l195.55 195.55L103.945 508.11a9.475 9.475 0 0 0 3.24 11.707 9.473 9.473 0 0 0 12.099-1.091l77.917-77.917a7.434 7.434 0 0 0-10.513-10.513l-56.992 56.993L239.26 245.364l16.911 115.452-36.568 36.567a7.434 7.434 0 0 0 10.513 10.513l196.478-196.479a7.426 7.426 0 0 0 2.156-4.713l5.382-73.504 89.49-6.27a9.926 9.926 0 0 0 8.565-6.37 9.928 9.928 0 0 0-2.198-10.443zM61.02 24.893l146.645 4.763 24.348 166.23zM414.126 202.86l-4.53 4.531-74-74 90.222-90.224-11.692 159.693zm21.104-84.639 5.675-77.513 70.926 72.146z" style="fill:#eff0f9;fill-opacity:1;stroke:none;stroke-width:.919854;stroke-miterlimit:4;stroke-dasharray:none;stroke-opacity:1" transform="translate(16.503 18.383) scale(.14371)"/></g></svg>