<svg xmlns="http://www.w3.org/2000/svg" width="400" height="400" viewBox="0 0 105.833 105.833"><path d="M-.106 0h106.584v105.67H-.106z" fill="#32014f" paint-order="stroke fill markers"/><path d="M92.668 34.208L79.734 21.052c-.007-.008-.016-.014-.023-.021a1.02 1.02 0 00-.057-.05 1.113 1.113 0 00-.067-.052.981.981 0 00-.06-.038 1.06 1.06 0 00-.079-.044c-.01-.006-.02-.013-.031-.018l-.031-.01a1.071 1.071 0 00-.085-.032 1.107 1.107 0 00-.066-.02 1.135 1.135 0 00-.085-.017c-.023-.004-.047-.008-.07-.01-.029-.004-.057-.004-.086-.005h-.07c-.028.001-.057.005-.085.008-.024.003-.047.005-.07.01-.027.005-.054.013-.08.02-.024.007-.05.013-.073.021l-.012.004c-.022.008-.042.019-.063.029-.024.01-.047.019-.07.03-.028.016-.054.034-.08.05l-.053.034a1.077 1.077 0 00-.12.103l-.001.001L63.22 36.042l-3.268-3.268a1.068 1.068 0 00-1.511 1.51l15.413 15.414-18.654 18.654-6.402-43.71 4.942 4.942a1.068 1.068 0 001.511-1.51L48.03 20.85l-.012-.01a1.067 1.067 0 00-.113-.096l-.016-.012a1.087 1.087 0 00-.13-.08l-.005-.001a1.063 1.063 0 00-.14-.058l-.014-.005a1.055 1.055 0 00-.142-.034l-.026-.004a1.065 1.065 0 00-.123-.012l-24.287-.79a1.211 1.211 0 00-1.158.734 1.213 1.213 0 00.256 1.347l28.103 28.103-18.782 41.47a1.362 1.362 0 00.466 1.683 1.361 1.361 0 001.738-.157l11.198-11.197a1.068 1.068 0 00-1.511-1.511l-8.19 8.19 15.745-34.767 2.43 16.592-5.255 5.255A1.068 1.068 0 0049.573 77l28.236-28.235a1.067 1.067 0 00.31-.678l.773-10.563 12.86-.9a1.426 1.426 0 001.232-.916 1.427 1.427 0 00-.316-1.501zM25.272 21.96l21.075.685 3.499 23.889zm50.745 25.576l-.651.651-10.634-10.634 12.965-12.966-1.68 22.949zm3.033-12.163l.815-11.14 10.193 10.368z" fill="#eff0f9" stroke-width=".92"/></svg>