<svg xmlns="http://www.w3.org/2000/svg" width="274.524" height="283.097" viewBox="0 0 72.634 74.903"><defs><path id="d" d="M-32.928 70.345h148.923v83.816H-32.928z"/><path id="c" d="M223.384 239.474h111.505v90.551H223.384z"/><path id="b" d="M86.809 77.829h85.687v74.461H86.809z"/><path id="a" d="M6.048 117.929H198.06v60.476H6.048z"/></defs><g fill="#fff" stroke="#fff" stroke-width="9.205"><path stroke-width="1.32285055" d="M71.565 15.12L58.632 1.964l-.024-.02a1.02 1.02 0 00-.183-.14 1.06 1.06 0 00-.08-.045l-.03-.017c-.011-.005-.021-.007-.032-.011a1.071 1.071 0 00-.236-.069c-.023-.004-.046-.008-.07-.01-.028-.003-.057-.004-.085-.004-.024 0-.047-.002-.07 0-.029 0-.057.004-.085.008-.024.003-.048.005-.071.01-.027.005-.053.013-.08.02-.024.007-.049.012-.073.02l-.012.004c-.022.008-.042.02-.063.029l-.07.031c-.028.015-.054.033-.08.05-.018.012-.036.021-.053.034a1.077 1.077 0 00-.12.103s0 0 0 0L42.117 16.955l-3.268-3.268a1.069 1.069 0 00-1.511 1.511l15.414 15.414-18.655 18.654-6.402-43.712 4.942 4.943a1.069 1.069 0 001.511-1.51l-7.222-7.223-.011-.01a1.067 1.067 0 00-.114-.096l-.016-.011a1.087 1.087 0 00-.13-.08l-.005-.002a1.064 1.064 0 00-.14-.058l-.014-.005a1.055 1.055 0 00-.142-.034l-.025-.004a1.065 1.065 0 00-.124-.012L1.92.662a1.211 1.211 0 00-1.158.734c-.2.462-.1.99.256 1.347L29.12 30.845 10.338 72.316a1.362 1.362 0 002.205 1.526L23.74 62.645a1.068 1.068 0 00-1.51-1.511l-8.191 8.19 15.745-34.767 2.43 16.592-5.255 5.255a1.068 1.068 0 001.511 1.51l28.236-28.236c.181-.18.292-.421.31-.677l.774-10.563 12.86-.901a1.426 1.426 0 001.231-.916 1.427 1.427 0 00-.316-1.5zM4.17 2.873l21.075.684 3.499 23.89zm50.745 25.576l-.65.65-10.635-10.634L56.595 5.499l-1.68 22.95zm3.033-12.164l.816-11.14 10.193 10.369z"/></g></svg>