<svg xmlns="http://www.w3.org/2000/svg" width="344.895" height="119.912" viewBox="0 0 91.253 31.727"><defs><path id="d" d="M-32.928 70.345h148.923v83.816H-32.928z"/><path id="c" d="M223.384 239.474h111.505v90.551H223.384z"/><path id="b" d="M86.809 77.829h85.687v74.461H86.809z"/><path id="a" d="M6.048 117.929H198.06v60.476H6.048z"/><path id="e" d="M37.418 193.45h119.363v40.411H37.418z"/></defs><g style="fill:#333;fill-opacity:.6;stroke:none;stroke-width:.919854;stroke-miterlimit:4;stroke-dasharray:none;stroke-opacity:1"><path d="M501.279 100.612 411.282 9.066c-.052-.053-.112-.094-.165-.145a7.102 7.102 0 0 0-.391-.343 7.745 7.745 0 0 0-.469-.364 6.827 6.827 0 0 0-.414-.269 7.38 7.38 0 0 0-.55-.305c-.076-.038-.143-.087-.221-.122-.07-.032-.143-.049-.213-.078a7.454 7.454 0 0 0-.59-.217 7.704 7.704 0 0 0-.464-.139 7.897 7.897 0 0 0-.59-.119c-.162-.027-.324-.057-.487-.074-.197-.02-.395-.023-.594-.028-.164-.003-.327-.012-.49-.004-.197.009-.394.036-.591.061-.165.021-.329.035-.492.066-.185.036-.368.092-.552.142-.171.047-.343.087-.511.147-.027.009-.054.013-.081.023-.153.056-.292.133-.439.199-.163.072-.328.136-.486.219-.196.104-.377.228-.562.348-.121.079-.248.147-.366.234a7.494 7.494 0 0 0-.834.714l-.008.007-104.35 104.354-22.741-22.741a7.434 7.434 0 0 0-10.513 10.513l107.255 107.254-129.806 129.805-44.551-304.163 34.394 34.395a7.434 7.434 0 0 0 10.513-10.513L190.666 7.666c-.024-.024-.053-.042-.077-.066a7.427 7.427 0 0 0-.789-.672c-.038-.028-.077-.052-.115-.079a7.565 7.565 0 0 0-.908-.554l-.027-.012a7.4 7.4 0 0 0-.977-.403l-.098-.035a7.343 7.343 0 0 0-.986-.238c-.059-.01-.118-.021-.178-.03a7.409 7.409 0 0 0-.86-.084L16.653.005a8.429 8.429 0 0 0-8.06 5.105 8.438 8.438 0 0 0 1.785 9.372l195.549 195.549L75.236 498.606a9.475 9.475 0 0 0 3.24 11.707 9.473 9.473 0 0 0 12.099-1.091l77.917-77.917a7.434 7.434 0 0 0-10.513-10.513l-56.992 56.993L210.55 235.859l16.911 115.452-36.568 36.567a7.434 7.434 0 0 0 10.513 10.513l196.478-196.479a7.426 7.426 0 0 0 2.156-4.713l5.382-73.504 89.49-6.27a9.926 9.926 0 0 0 8.565-6.37 9.928 9.928 0 0 0-2.198-10.443zM32.311 15.388l146.645 4.763 24.348 166.23zm353.105 177.967-4.53 4.531-74.001-74.001 90.223-90.223-11.692 159.693zm21.104-84.639 5.675-77.513 70.926 72.146z" style="fill:#333;fill-opacity:.6;stroke:none;stroke-width:.919854;stroke-miterlimit:4;stroke-dasharray:none;stroke-opacity:1" transform="matrix(.06186 0 0 .06186 60.043 .028)"/></g><g aria-label="falco" transform="matrix(1.13795 0 0 1.13795 -43.39 -220.459)" style="font-size:10.5833px;line-height:1.25;font-family:Quicksand;-inkscape-font-specification:Quicksand;white-space:pre;shape-inside:url(#e);fill:#333;fill-opacity:1"><path d="M43.489 198.275q.304 0 .71.051.433.05.737.203.33.153.33.457 0 .178-.152.356-.127.152-.33.152-.254 0-.61-.152-.355-.152-.787-.152-.508 0-.914.228-.381.229-.61.711-.203.458-.203 1.194v15.113q0 .203-.153.356-.152.152-.355.152-.229 0-.381-.152-.127-.153-.127-.356v-15.113q0-1.575.838-2.311.838-.737 2.007-.737zm1.168 6.147q.203 0 .33.152.153.127.153.33 0 .204-.153.356-.127.127-.33.127h-6.045q-.178 0-.33-.152-.153-.153-.153-.33 0-.229.153-.356.152-.127.33-.127zM58.348 204.27q.228 0 .355.152.153.152.153.356v11.658q0 .203-.153.356-.152.152-.355.152-.23 0-.381-.152-.127-.153-.127-.356v-3.607l.406-.33q0 .813-.406 1.651-.407.838-1.118 1.524-.711.686-1.676 1.118-.966.406-2.083.406-1.702 0-3.048-.889-1.321-.889-2.083-2.413-.762-1.524-.762-3.429 0-1.93.762-3.403.787-1.499 2.108-2.337 1.346-.864 3.023-.864 1.092 0 2.057.407.965.38 1.677 1.092.736.711 1.143 1.676.406.94.406 2.058l-.406-.635v-3.683q0-.204.127-.356.152-.152.38-.152zm-5.334 11.963q1.422 0 2.54-.737 1.117-.762 1.752-2.057.635-1.32.635-2.972 0-1.575-.635-2.845-.635-1.295-1.752-2.032-1.118-.762-2.54-.762-1.397 0-2.515.737-1.118.711-1.778 1.981-.635 1.27-.635 2.921 0 1.651.635 2.972.635 1.295 1.753 2.057 1.117.737 2.54.737zM64.215 216.436q0 .203-.152.356-.153.152-.356.152-.229 0-.381-.152-.127-.153-.127-.356v-17.78q0-.203.152-.355.153-.153.356-.153.229 0 .356.153.152.152.152.355zM73.816 203.863q1.143 0 2.134.254 1.016.254 1.625.686.635.406.635.864 0 .177-.152.355-.127.153-.33.153-.28 0-.457-.153-.153-.152-.33-.355-.178-.229-.56-.407-.355-.178-1.015-.305-.635-.127-1.575-.127-1.473 0-2.693.762-1.219.762-1.955 2.058-.712 1.27-.712 2.87 0 1.626.66 2.921.687 1.295 1.88 2.057 1.22.737 2.82.737 1.143 0 1.727-.203.61-.229 1.041-.483.534-.305.737-.584.203-.28.483-.28.203 0 .304.128.127.127.127.33 0 .305-.558.813-.56.482-1.575.863-.99.381-2.362.381-1.855 0-3.277-.863-1.422-.89-2.235-2.388-.788-1.524-.788-3.429 0-1.778.788-3.277.813-1.524 2.235-2.438 1.448-.94 3.378-.94zM92.968 210.543q0 1.88-.813 3.404-.813 1.499-2.235 2.388-1.397.863-3.2.863-1.779 0-3.201-.863-1.423-.89-2.26-2.388-.814-1.524-.814-3.404 0-1.905.813-3.403.838-1.524 2.26-2.388 1.423-.889 3.201-.889 1.804 0 3.2.89 1.423.863 2.236 2.387.813 1.498.813 3.403zm-1.016 0q0-1.65-.686-2.92-.66-1.296-1.854-2.033-1.169-.762-2.693-.762-1.498 0-2.692.762-1.194.737-1.88 2.032-.686 1.27-.686 2.921 0 1.626.686 2.921.686 1.27 1.88 2.032 1.194.737 2.692.737 1.524 0 2.693-.737 1.193-.762 1.854-2.032.686-1.295.686-2.92z" style="font-style:normal;font-variant:normal;font-weight:300;font-stretch:normal;font-size:25.4px;font-family:Quicksand;-inkscape-font-specification:'Quicksand Light';fill:#333;fill-opacity:1"/></g></svg>