<svg xmlns="http://www.w3.org/2000/svg" width="347.512" height="121.697" viewBox="0 0 91.946 32.199"><path fill="#ccc" stroke="#ccc" stroke-width=".829" d="M91.315 6.489L85.748.826l-.01-.01a.44.44 0 00-.113-.078L85.611.73l-.013-.004a.461.461 0 00-.102-.03l-.03-.004C85.454.69 85.442.69 85.43.69h-.03l-.036.003-.03.005-.035.008-.032.01h-.005c-.01.004-.018.01-.027.013l-.03.014-.035.02-.022.016a.464.464 0 00-.052.044L78.64 7.278 77.233 5.87a.46.46 0 00-.65.65l6.634 6.635-8.029 8.03L72.433 2.37l2.127 2.128a.46.46 0 00.65-.65L72.102.738c-.002 0-.004-.002-.005-.003a.46.46 0 00-.049-.042l-.007-.005a.468.468 0 00-.056-.034h-.002a.458.458 0 00-.06-.026l-.006-.001a.454.454 0 00-.06-.015L71.844.61a.458.458 0 00-.054-.005L61.338.265a.521.521 0 00-.498.317.522.522 0 00.11.58l12.095 12.095-8.084 17.85a.586.586 0 00.95.656l4.82-4.82a.46.46 0 00-.652-.65l-3.525 3.526 6.777-14.964 1.046 7.14-2.262 2.263a.46.46 0 00.65.65l12.153-12.153a.46.46 0 00.133-.292l.333-4.546 5.536-.388a.614.614 0 00.394-1.04zM62.307 1.217l9.07.295 1.506 10.282zm21.84 11.008l-.28.28-4.577-4.577 5.581-5.58-.723 9.877zm1.306-5.235l.351-4.794 4.387 4.462z"/><path fill="#eee" stroke="#eee" stroke-width=".829" d="M6.363 5.405q.346 0 .808.058.493.057.839.231.375.174.375.52 0 .203-.172.405-.145.173-.376.173-.289 0-.694-.173-.404-.173-.896-.173-.578 0-1.04.26-.433.26-.694.809-.231.52-.231 1.358v17.198q0 .231-.174.405-.173.173-.404.173-.26 0-.434-.173-.144-.174-.144-.405V8.873q0-1.792.953-2.63.954-.838 2.284-.838zm1.33 6.995q.23 0 .375.173.174.144.174.375 0 .233-.174.406-.145.144-.376.144H.814q-.203 0-.376-.173-.174-.174-.174-.375 0-.261.174-.406.173-.144.376-.144zm15.58-.173q.259 0 .403.173.174.173.174.405v13.266q0 .231-.174.405-.173.173-.404.173-.262 0-.433-.173-.145-.174-.145-.405v-4.104l.462-.376q0 .925-.462 1.879-.463.954-1.272 1.734-.81.78-1.907 1.272-1.1.462-2.37.462-1.937 0-3.47-1.011-1.502-1.012-2.37-2.746-.867-1.734-.867-3.902 0-2.196.867-3.873.896-1.705 2.4-2.659 1.531-.983 3.44-.983 1.242 0 2.34.463 1.098.432 1.908 1.243.838.809 1.301 1.907.462 1.07.462 2.342l-.462-.723v-4.191q0-.232.145-.405.173-.173.432-.173zm-6.07 13.613q1.617 0 2.89-.838 1.27-.868 1.993-2.341.723-1.502.723-3.382 0-1.792-.723-3.238-.722-1.473-1.993-2.312-1.273-.867-2.89-.867-1.59 0-2.863.839-1.272.809-2.023 2.254-.722 1.445-.722 3.324 0 1.879.722 3.382.723 1.473 1.995 2.34 1.271.84 2.89.84zm12.746.231q0 .231-.173.405-.175.173-.406.173-.26 0-.433-.173-.145-.174-.145-.405V5.84q0-.231.173-.404.174-.175.405-.175.261 0 .406.175.173.173.173.404zm10.925-14.307q1.3 0 2.428.289 1.157.289 1.85.78.722.462.722.984 0 .201-.173.404-.144.174-.375.174-.319 0-.52-.174-.175-.173-.376-.404-.202-.26-.637-.463-.404-.203-1.155-.348-.723-.144-1.792-.144-1.677 0-3.065.867-1.387.867-2.225 2.342-.81 1.445-.81 3.266 0 1.85.751 3.324.782 1.473 2.14 2.34 1.388.84 3.209.84 1.3 0 1.965-.232.694-.26 1.184-.55.608-.346.839-.664.231-.319.55-.319.23 0 .346.146.144.145.144.376 0 .347-.635.925-.637.548-1.792.982-1.127.433-2.688.433-2.11 0-3.729-.982-1.618-1.012-2.543-2.717-.897-1.734-.897-3.902 0-2.023.897-3.73.925-1.733 2.543-2.774 1.648-1.07 3.844-1.07zm21.794 7.601q0 2.14-.925 3.874-.925 1.706-2.543 2.717-1.59.982-3.642.982-2.024 0-3.643-.982-1.619-1.012-2.571-2.717-.927-1.734-.927-3.874 0-2.167.926-3.872.953-1.734 2.571-2.718 1.62-1.011 3.643-1.011 2.053 0 3.641 1.013 1.62.982 2.545 2.716.925 1.705.925 3.872zm-1.156 0q0-1.877-.78-3.322-.752-1.475-2.11-2.314-1.33-.867-3.065-.867-1.705 0-3.063.867-1.36.839-2.14 2.312-.78 1.446-.78 3.324 0 1.85.78 3.324.78 1.445 2.14 2.313 1.358.838 3.063.838 1.734 0 3.064-.838 1.358-.868 2.11-2.313.78-1.473.78-3.323z" aria-label="falco"/></svg>