<svg xmlns="http://www.w3.org/2000/svg" width="512" height="512" viewBox="0 0 64 64"><g data-name="Processor security"><path fill="#fff" d="M27 11h2v2h-2zM53 35h2v2h-2zM35 51h2v2h-2zM27 54h2v2h-2zM11 31h2v2h-2zM35 11h2v2h-2zM51 27h2v2h-2zM46 17h2v2h-2zM16 17h2v2h-2zM46 45h2v2h-2zM16 45h2v2h-2zM31.882 31A2.994 2.994 0 0031 36.822V39h2v-2.185A2.993 2.993 0 0031.882 31zM33 33.961A1 1 0 0132.04 35a1 1 0 01-.719-.266A1 1 0 0131.96 33H32a1 1 0 011 .96z"/><path fill="#fff" d="M37 28.184V27a5 5 0 00-10 0v1.184A3 3 0 0025 31v8a3 3 0 003 3h8a3 3 0 003-3v-8a3 3 0 00-2-2.816zM29 27a3 3 0 016 0v1h-6zm8 12a1 1 0 01-1 1h-8a1 1 0 01-1-1v-8a1 1 0 011-1h8a1 1 0 011 1z"/><path fill="#fff" d="M59 41a2.951 2.951 0 00-1.285.3l-2.3-2.3H46v-2h5v-2h-5v-2h5.236l5.687-2.844A2.994 2.994 0 1056 28a2.9 2.9 0 00.037.363L50.764 31H46v-2h3v-2h-3v-2h4.414l3.3-3.3A2.951 2.951 0 0055 22a3 3 0 10-3-3 2.951 2.951 0 00.3 1.285L49.586 23H46a5.006 5.006 0 00-5-5v-2.586L46.715 9.7A2.951 2.951 0 0048 10a3 3 0 10-3-3 2.951 2.951 0 00.3 1.285l-6.3 6.3V18h-2v-3h-2v3h-2v-7.184a3 3 0 10-2 0V18h-2v-3h-2v3h-2v-7.414l-4.3-4.3A2.951 2.951 0 0021 5a3 3 0 10-3 3 2.951 2.951 0 001.285-.3L23 11.414V18a5.006 5.006 0 00-5 5h-3.586L11.7 20.285A2.951 2.951 0 0012 19a3 3 0 10-3 3 2.951 2.951 0 001.285-.3l3.3 3.3H18v2h-6.362L6.4 31.364A2.953 2.953 0 005 31a3 3 0 103 3 2.972 2.972 0 00-.237-1.168L12.362 29H18v2h-3v2h3v2H9v2h9v2h-5.535l-4.03 6.044A2.968 2.968 0 008 45a3.028 3.028 0 102.21.988L13.535 41H18a5.006 5.006 0 005 5v6.586L19.285 56.3A2.951 2.951 0 0018 56a3 3 0 103 3 2.951 2.951 0 00-.3-1.285l4.3-4.3V46h2v6h2v-6h2v8.554l6.074 3.8a3.044 3.044 0 101.069-1.691L33 53.446V46h2v3h2v-3h2v8h7.184a3 3 0 100-2H41v-6a5.006 5.006 0 005-5h8.586l1.714 1.715A2.951 2.951 0 0056 44a3 3 0 103-3zm0-14a1 1 0 11-1 1 1 1 0 011-1zm-4-9a1 1 0 11-1 1 1 1 0 011-1zM48 6a1 1 0 11-1 1 1 1 0 011-1zM32 7a1 1 0 11-1 1 1 1 0 011-1zM17 5a1 1 0 111 1 1 1 0 01-1-1zM8 19a1 1 0 111 1 1 1 0 01-1-1zM5 35a1 1 0 111-1 1 1 0 01-1 1zm3 14a1 1 0 111-1 1 1 0 01-1 1zm10 11a1 1 0 111-1 1 1 0 01-1 1zm22-2a1 1 0 11-1 1 1 1 0 011-1zm9-6a1 1 0 11-1 1 1 1 0 011-1zm-5-11a3 3 0 01-3 3H23a3 3 0 01-3-3V23a3 3 0 013-3h18a3 3 0 013 3zm15 4a1 1 0 111-1 1 1 0 01-1 1z"/></g></svg>