<svg xmlns="http://www.w3.org/2000/svg" viewBox="0 0 496 496"><path fill="#fff" d="M456 112h-8V0H48v112h-8c-22.056 0-40 17.944-40 40v256c0 22.056 17.944 40 40 40h112v32h-24v16h240v-16h-24v-32h112c22.056 0 40-17.944 40-40V152c0-22.056-17.944-40-40-40zM64 16h368v48H64V16zm0 64h368v272h-48v-22.208l-30.664-7.848a113.045 113.045 0 00-3.976-9.48l16.168-27.272-42.728-42.728-27.272 16.168a112.514 112.514 0 00-9.48-3.968L278.208 224h-60.424l-7.84 30.664a118.077 118.077 0 00-9.48 3.968l-27.272-16.168-42.728 42.728 16.168 27.272a113.045 113.045 0 00-3.976 9.48L112 329.792V352H64V80zm245.96 272H186.104c7.136-27.56 32.136-48 61.896-48 18.704 0 36.432 8.16 48.624 22.376l12.152-10.408C293.536 298.192 271.384 288 248 288c-38.632 0-70.952 27.528-78.384 64H128v-9.792l27.128-6.936 1.336-4.232c1.6-5.056 3.736-10.168 6.36-15.224l2.048-3.944-14.312-24.144 25.16-25.168 24.144 14.32 3.944-2.048c5.056-2.632 10.184-4.776 15.232-6.376l4.232-1.344L230.208 240h35.576l6.936 27.12 4.232 1.344c5.048 1.6 10.168 3.744 15.232 6.376l3.944 2.048 24.144-14.32 25.16 25.168-14.312 24.144 2.048 3.944c2.624 5.056 4.768 10.168 6.36 15.224l1.336 4.232L368 342.208V352h-41.744c-1.488-7.296-3.864-14.4-7.304-20.984l-14.176 7.408c2.272 4.36 3.976 8.904 5.184 13.576zM328 480H168v-32h160v32zm152-72c0 13.232-10.768 24-24 24H40c-13.232 0-24-10.768-24-24v-8h464v8zm0-24H16V152c0-13.232 10.768-24 24-24h8v240h400V128h8c13.232 0 24 10.768 24 24v232z"/><path fill="#fff" d="M292.44 113.344l-8.88 13.312L321.576 152l-38.016 25.344 8.88 13.312L350.424 152zM212.44 126.656l-8.88-13.312L145.576 152l57.984 38.656 8.88-13.312L174.424 152zM224.394 197.494l32.017-95.988 15.177 5.063-32.016 95.988zM144 32h16v16h-16zM112 32h16v16h-16zM80 32h16v16H80z"/></svg>