<svg xmlns="http://www.w3.org/2000/svg" viewBox="0 0 512 512"><path fill="#fff" d="M356.883 124.529c-26.994-26.805-62.742-41.531-100.759-41.531-.346 0-.694.002-1.041.004-41.121.29-80.224 18.446-107.281 49.811-3.607 4.182-3.142 10.496 1.04 14.104 4.183 3.608 10.497 3.14 14.104-1.04 23.29-26.998 56.925-42.626 92.278-42.875.301-.002.597-.004.896-.004 32.701 0 63.453 12.668 86.673 35.724 23.436 23.27 36.343 54.274 36.343 87.3 0 31.539-11.922 61.531-33.569 84.449-22.728 24.062-36.068 54.518-38.07 86.532H288V291.005h6.333c14.521 0 26.333-11.813 26.333-26.332v-1.334c0-14.521-11.813-26.332-26.333-26.332-14.521 0-26.332 11.813-26.332 26.332v7.667h-23.999v-7.667c0-14.521-11.813-26.332-26.332-26.332h-1.694c-14.521 0-26.332 11.813-26.332 26.332v1.334c0 14.521 11.813 26.332 26.332 26.332h8.027v105.997h-19.259c-1.94-32.37-15.015-62.544-37.308-85.719-23.021-23.936-35.202-55.437-34.298-88.699.15-5.521-4.203-10.118-9.725-10.268-5.545-.188-10.117 4.203-10.268 9.725-1.051 38.661 13.11 75.277 39.876 103.106 20.619 21.436 31.974 49.953 31.974 80.3v28.937c0 21.389 16.221 39.053 37.006 41.355V478c-.001 18.748 15.251 34 33.998 34s33.999-15.252 33.999-33.999v-2.232c20.895-2.198 37.232-19.917 37.232-41.384v-28.934c0-29.949 11.675-58.804 32.873-81.247 25.169-26.645 39.03-61.515 39.03-98.183.001-38.395-15.004-74.438-42.25-101.492zM288 263.339a6.34 6.34 0 016.333-6.333 6.341 6.341 0 016.334 6.333v1.334a6.341 6.341 0 01-6.334 6.333H288v-7.667zm-43.999 27.666H268v105.997h-23.999V291.005zm-28.027-19.999a6.34 6.34 0 01-6.333-6.333v-1.334a6.34 6.34 0 016.333-6.333h1.694a6.34 6.34 0 016.333 6.333v7.667h-8.027zM270 478.001c0 7.72-6.28 14-14 14s-14-6.28-14-14v-2h28v2zm37.232-43.616c0 11.92-9.697 21.617-21.617 21.617H226.611c-11.92 0-21.617-9.697-21.617-21.617v-17.383h102.238v17.383zM256 0c-5.522 0-10 4.478-10 10v37.344c0 5.522 4.477 10 10 10 5.522 0 10-4.478 10-10V10c0-5.522-4.478-10-10-10zM472.02 216.021h-37.344c-5.522 0-10 4.478-10 10s4.478 10 10 10h37.344c5.522 0 10-4.478 10-10s-4.477-10-10-10zM77.324 216.021H39.98c-5.522 0-10 4.478-10 10s4.478 10 10 10h37.344c5.522 0 10-4.478 10-10s-4.477-10-10-10zM136.727 92.606L110.322 66.2c-3.905-3.903-10.235-3.905-14.143 0-3.905 3.905-3.905 10.237 0 14.143l26.405 26.406c1.954 1.952 4.513 2.929 7.072 2.929s5.118-.977 7.071-2.929c3.905-3.905 3.905-10.237 0-14.143zM415.821 66.199c-3.906-3.904-10.236-3.904-14.142 0l-26.405 26.406c-3.905 3.905-3.905 10.237 0 14.143 1.953 1.952 4.512 2.929 7.071 2.929s5.118-.977 7.071-2.929l26.405-26.406c3.905-3.905 3.905-10.237 0-14.143z"/><path fill="#fff" d="M349.612 188.262c-7.493-18.599-20.235-34.427-36.848-45.775-16.832-11.495-36.506-17.559-56.95-17.559l-.73.002c-5.523.039-9.969 4.548-9.93 10.07.039 5.499 4.509 9.93 9.999 9.93h.071c.199-.002.394-.002.592-.002 33.297 0 62.792 19.892 75.246 50.807a10.003 10.003 0 009.278 6.267c1.244 0 2.51-.234 3.733-.728 5.123-2.064 7.603-7.891 5.539-13.012zM353.977 218.951a10.073 10.073 0 00-7.069-2.931 10.079 10.079 0 00-7.08 2.931c-1.86 1.859-2.92 4.439-2.92 7.069s1.06 5.21 2.92 7.07a10.078 10.078 0 007.08 2.93c2.63 0 5.21-1.069 7.069-2.93 1.86-1.86 2.92-4.44 2.92-7.07s-1.06-5.21-2.92-7.069zM140.572 167.432c-1.859-1.86-4.439-2.92-7.069-2.92s-5.21 1.059-7.07 2.92a10.1 10.1 0 00-2.93 7.08c0 2.63 1.069 5.2 2.93 7.07 1.86 1.859 4.44 2.93 7.07 2.93s5.21-1.07 7.069-2.93a10.094 10.094 0 002.931-7.07c0-2.64-1.07-5.21-2.931-7.08z"/></svg>