<svg xmlns="http://www.w3.org/2000/svg" width="512" height="512" data-name="Out line"><path fill="#fff" d="M376 88a48 48 0 1048 48 48.054 48.054 0 00-48-48zm0 80a32 32 0 1132-32 32.036 32.036 0 01-32 32zM255.03 263.03l9.372-9.373-11.312-11.314-9.374 9.373a118.61 118.61 0 00-23.246 32.838l14.44 6.892a102.646 102.646 0 0120.12-28.416zM210.086 318.86l15.836 2.28a103.878 103.878 0 013.268-14.85l-15.33-4.58a119.783 119.783 0 00-3.774 17.15z"/><path fill="#fff" d="M488 16h-27.024a154.19 154.19 0 00-109.75 45.46A324.557 324.557 0 00310.01 112H281.94a89.354 89.354 0 00-63.598 26.343 8 8 0 000 11.314l32 32A8 8 0 00256 184h18.275a320.532 320.532 0 00-1.266 3.677l-22.666 22.666a852.207 852.207 0 00-97.332 116.53 63.96 63.96 0 00-96.88 17.959 40.029 40.029 0 00-38.129 12.708l11.996 10.587A24.025 24.025 0 0148 360c.673 0 1.34.033 2.004.088A63.902 63.902 0 0048 376h16a47.983 47.983 0 0179.945-35.805q-3.851 5.78-7.617 11.612l-1.428 2.22A64.999 64.999 0 0180 384v16a80.931 80.931 0 0068.358-37.32l1.428-2.22a836.006 836.006 0 01106.252-133.108L284.686 256l-18.343 18.343a87.198 87.198 0 000 123.314l11.314-11.314a70.656 70.656 0 01-19.94-38.98 32 32 0 0145.698 22.567 71.53 71.53 0 00-10.417 3.307l6.004 14.83A56.037 56.037 0 01376 440h16a72.081 72.081 0 00-72-72c-.226 0-.45.014-.677.016a48.018 48.018 0 00-62.28-37.635 70.65 70.65 0 0120.614-44.724l46.665-46.666a318.55 318.55 0 003.678-1.266V256a8 8 0 002.343 5.657l32 32a8 8 0 0011.314 0A89.352 89.352 0 00400 230.059v-28.068a324.622 324.622 0 0050.541-41.218A154.195 154.195 0 00496 51.024V24a8 8 0 00-8-8zm-8 16v19.024a139.94 139.94 0 01-4.848 36.625 52.367 52.367 0 01-31.297-15.108l-4.396-4.396a52.37 52.37 0 01-15.108-31.297A139.949 139.949 0 01460.976 32zM259.313 168l-23.699-23.7a73.387 73.387 0 0146.327-16.3h18.141a326.222 326.222 0 00-19.724 40zm8.001 48L280 203.314 308.686 232 296 244.686zM384 230.06a73.383 73.383 0 01-16.3 46.326l-23.7-23.7v-21.044a326.219 326.219 0 0040-19.724zm55.227-80.6a310.46 310.46 0 01-117.088 73.365l-32.963-32.963A310.45 310.45 0 01362.54 72.773a138.92 138.92 0 0146.379-30.745 68.262 68.262 0 0019.225 37.43l4.396 4.397a68.262 68.262 0 0037.43 19.225 138.94 138.94 0 01-30.744 46.38zM72.189 434.816a47.988 47.988 0 00-44.998 6.787l9.61 12.793A32.003 32.003 0 0188 480h16a47.923 47.923 0 00-17.848-37.31 40.017 40.017 0 0153.842-13.344l8.012-13.85a56.04 56.04 0 00-75.817 19.32z"/><path fill="#fff" d="M224 400a55.902 55.902 0 00-37.335 14.261l10.67 11.922a40.017 40.017 0 0164.39 43.151l15.087 5.332A56.033 56.033 0 00224 400z"/></svg>