<svg xmlns="http://www.w3.org/2000/svg" width="512" height="512" viewBox="0 0 64 64"><path fill="#fff" d="M6 19h2v2H6zM10 19h2v2h-2zM14 19h2v2h-2zM6 31h2v2H6zM10 31h2v2h-2zM14 31h2v2h-2zM6 43h2v2H6zM10 43h2v2h-2zM14 43h2v2h-2zM54 9V6h-2v2h-2v2h3a1 1 0 001-1z"/><path fill="#fff" d="M61 26H43a1 1 0 00-1 1v4h-6V9h2v4a1 1 0 001 1h5v2h-2v2h12v-2h-2v-2h5a1 1 0 001-1V3a1 1 0 00-1-1H39a1 1 0 00-1 1v4h-3a1 1 0 00-1 1v23h-4v-4h-2v-2h2V15H2v10h2v2H2v10h2v2H2v10h28V39h-2v-2h2v-4h4v19a1 1 0 001 1h3v4a1 1 0 001 1h5v2h-2v2h12v-2h-2v-2h5a1 1 0 001-1V47a1 1 0 00-1-1H39a1 1 0 00-1 1v4h-2V33h6v4a1 1 0 001 1h5v2h-2v2h12v-2h-2v-2h5a1 1 0 001-1V27a1 1 0 00-1-1zM50 16h-4v-2h4zM40 4h16v8H40zM4 17h24v6H4zm22 8v2H6v-2zm2 22H4v-6h24zM6 39v-2h20v2zm22-4H4v-6h24zm22 25h-4v-2h4zM40 48h16v8H40zm14-8h-4v-2h4zm6-4H44v-8h16z"/><path fill="#fff" d="M58 33v-3h-2v2h-2v2h3a1 1 0 001-1zM54 53v-3h-2v2h-2v2h3a1 1 0 001-1z"/></svg>